<?xml version="1.0" standalone="no"?>
<!DOCTYPE svg PUBLIC "-//W3C//DTD SVG 20010904//EN"
 "http://www.w3.org/TR/2001/REC-SVG-20010904/DTD/svg10.dtd">
<svg version="1.0" xmlns="http://www.w3.org/2000/svg"
 width="3000.000000pt" height="3000.000000pt" viewBox="0 0 3000.000000 3000.000000"
 preserveAspectRatio="xMidYMid meet">

<g transform="translate(0.000000,3000.000000) scale(0.100000,-0.100000)"
fill="#000000" stroke="none">
<path d="M3240 14985 l0 -13645 4740 0 4740 0 0 7697 0 7698 -2228 -2228
c-1225 -1225 -2232 -2227 -2237 -2227 -6 0 -620 610 -1365 1355 l-1355 1355
4735 4735 4735 4735 4735 -4735 4735 -4735 -1355 -1355 c-745 -745 -1359
-1355 -1365 -1355 -5 0 -1015 1005 -2242 2232 l-2233 2233 0 -7451 0 -7451 53
13 c97 24 252 65 342 91 50 14 104 29 120 33 166 43 813 250 892 286 17 8 36
14 42 14 6 0 25 6 43 14 18 8 51 21 73 29 122 45 232 89 349 138 38 16 72 29
77 29 8 0 128 52 172 75 16 8 32 15 37 15 5 0 48 18 97 41 48 22 111 51 138
64 142 65 203 94 348 166 194 97 401 206 505 268 29 17 55 31 57 31 4 0 438
260 494 295 9 6 41 26 71 45 117 73 373 249 545 374 770 558 1486 1231 2088
1960 60 72 125 151 146 176 86 103 359 473 509 692 168 244 448 700 569 928
22 41 55 102 72 134 89 162 302 598 355 724 15 35 42 95 60 135 19 40 44 97
56 127 12 30 26 64 30 75 5 11 25 61 46 110 20 50 43 104 50 122 8 17 14 36
14 42 0 6 4 19 10 29 12 21 71 174 99 257 11 33 37 105 56 160 20 55 40 114
45 130 4 17 26 86 49 155 22 69 48 150 57 180 10 30 23 73 29 95 24 78 67 228
90 315 10 36 23 85 30 110 25 88 63 240 89 353 9 37 23 95 31 130 8 34 21 96
30 137 9 41 22 102 30 135 7 33 21 101 30 150 9 50 22 119 30 155 7 36 20 108
29 160 9 52 23 131 31 175 14 80 30 184 59 385 240 1642 251 3630 30 5320 -14
109 -22 162 -59 410 -20 136 -64 389 -90 525 -8 39 -21 108 -30 155 -9 47 -22
112 -30 145 -7 33 -21 96 -30 140 -22 103 -71 313 -90 388 -31 118 -48 183
-60 227 -7 25 -20 74 -30 110 -29 110 -68 244 -90 315 -6 22 -20 67 -30 100
-9 33 -23 76 -30 95 -7 19 -36 105 -64 190 -56 172 -99 297 -131 380 -12 30
-25 66 -30 80 -5 14 -18 50 -30 80 -12 30 -25 66 -30 80 -7 21 -24 63 -82 200
-5 14 -16 39 -23 55 -7 17 -23 55 -35 85 -12 30 -33 78 -45 105 -67 147 -85
187 -85 192 0 8 -284 579 -333 668 -220 406 -470 811 -710 1150 -31 44 -69 98
-84 120 -104 150 -315 419 -522 665 -394 469 -897 966 -1411 1394 -147 123
-532 418 -680 521 -107 75 -416 282 -463 311 -27 16 -59 36 -72 44 -77 50
-423 255 -490 290 -44 23 -84 45 -90 50 -45 34 -797 410 -820 410 -3 0 -42 17
-87 39 -46 21 -128 57 -183 80 -55 23 -109 46 -120 50 -28 12 -160 65 -225 91
-30 11 -64 25 -75 29 -11 5 -40 16 -65 26 -25 9 -56 22 -70 27 -14 6 -43 16
-65 23 -22 7 -78 27 -125 44 -111 41 -347 120 -480 161 -58 17 -123 38 -145
45 -116 38 -577 166 -705 194 -19 5 -53 13 -75 19 -121 32 -614 140 -790 172
-33 6 -96 18 -140 26 -75 14 -125 23 -350 59 -577 95 -1265 170 -1890 205 -99
6 -252 16 -340 22 -118 9 -1537 13 -5387 15 l-5228 4 0 -13646z"/>
</g>
</svg>
